<svg width="30.000000" height="30.000000" viewBox="0 0 30 30" fill="none" xmlns="http://www.w3.org/2000/svg" xmlns:xlink="http://www.w3.org/1999/xlink">
	<desc>
			Created with Pixso.
	</desc>
	<defs>
		<clipPath id="clip120_239">
			<rect id="Outline / Design, Tools / Palette" rx="5.000000" width="30.000000" height="30.000000" fill="white" fill-opacity="0"/>
		</clipPath>
	</defs>
	<g clip-path="url(#clip120_239)">
		<path id="Vector" d="M8.96 4.25L9.03 4.25C9.7 4.25 10.25 4.25 10.7 4.28C11.16 4.32 11.58 4.4 11.97 4.6C12.58 4.91 13.08 5.41 13.39 6.02C13.59 6.41 13.67 6.83 13.71 7.29C13.75 7.74 13.75 8.29 13.75 8.96L13.75 9.43L15.8 7.37C16.28 6.9 16.67 6.51 17.01 6.22C17.36 5.91 17.72 5.68 18.13 5.54C18.79 5.33 19.49 5.33 20.14 5.54C20.56 5.68 20.91 5.91 21.27 6.22C21.61 6.51 22 6.9 22.47 7.37L22.52 7.42C22.99 7.89 23.38 8.28 23.67 8.62C23.98 8.98 24.21 9.33 24.35 9.75C24.56 10.4 24.56 11.1 24.35 11.76C24.21 12.17 23.98 12.53 23.67 12.88C23.38 13.22 22.99 13.61 22.52 14.09L20.36 16.25L21.03 16.25C21.7 16.25 22.25 16.25 22.7 16.28C23.16 16.32 23.58 16.4 23.97 16.6C24.58 16.91 25.08 17.41 25.39 18.02C25.59 18.41 25.67 18.83 25.71 19.29C25.75 19.74 25.75 20.29 25.75 20.96L25.75 21.03C25.75 21.7 25.75 22.25 25.71 22.7C25.67 23.16 25.59 23.58 25.39 23.97C25.08 24.58 24.58 25.08 23.97 25.39C23.58 25.59 23.16 25.67 22.7 25.71C22.25 25.75 21.7 25.75 21.03 25.75L9.08 25.75C9.06 25.75 9.05 25.75 9.03 25.75L8.96 25.75C8.29 25.75 7.74 25.75 7.29 25.71C6.83 25.67 6.41 25.59 6.02 25.39C5.41 25.08 4.91 24.58 4.6 23.97C4.4 23.58 4.32 23.16 4.28 22.7C4.25 22.25 4.25 21.7 4.25 21.03L4.25 8.96C4.25 8.29 4.25 7.74 4.28 7.29C4.32 6.83 4.4 6.41 4.6 6.02C4.91 5.41 5.41 4.91 6.02 4.6C6.41 4.4 6.83 4.32 7.29 4.28C7.74 4.25 8.29 4.25 8.96 4.25ZM13.23 24.25L21 24.25C21.71 24.25 22.2 24.24 22.58 24.21C22.95 24.18 23.15 24.13 23.29 24.05C23.62 23.89 23.89 23.62 24.05 23.29C24.13 23.15 24.18 22.95 24.21 22.58C24.24 22.2 24.25 21.71 24.25 21C24.25 20.28 24.24 19.79 24.21 19.41C24.18 19.04 24.13 18.84 24.05 18.7C23.89 18.37 23.62 18.1 23.29 17.94C23.15 17.86 22.95 17.81 22.58 17.78C22.2 17.75 21.71 17.75 21 17.75L18.86 17.75L13.69 22.92C13.64 23.3 13.56 23.64 13.39 23.97C13.34 24.06 13.29 24.16 13.23 24.25ZM13.75 20.74L21.44 13.05C21.94 12.55 22.28 12.2 22.53 11.91C22.77 11.63 22.87 11.45 22.92 11.29C23.04 10.94 23.04 10.56 22.92 10.21C22.87 10.06 22.77 9.88 22.53 9.59C22.28 9.3 21.94 8.96 21.44 8.45C20.93 7.95 20.58 7.61 20.29 7.36C20.01 7.12 19.83 7.02 19.68 6.97C19.33 6.85 18.95 6.85 18.6 6.97C18.44 7.02 18.26 7.12 17.98 7.36C17.69 7.61 17.34 7.95 16.84 8.45L14.7 10.6C14.08 11.22 13.92 11.39 13.84 11.59C13.76 11.78 13.75 12.01 13.75 12.88C13.75 12.89 13.75 12.89 13.75 12.89L13.75 20.74ZM12.25 21.04C12.25 21.73 12.24 22.2 12.21 22.58C12.18 22.95 12.13 23.15 12.05 23.29C11.89 23.62 11.62 23.89 11.29 24.05C11.15 24.13 10.95 24.18 10.58 24.21C10.2 24.24 9.71 24.25 9 24.25C8.28 24.25 7.79 24.24 7.41 24.21C7.04 24.18 6.84 24.13 6.7 24.05C6.37 23.89 6.1 23.62 5.94 23.29C5.86 23.15 5.81 22.95 5.78 22.58C5.75 22.2 5.75 21.71 5.75 21L5.75 9C5.75 8.28 5.75 7.79 5.78 7.41C5.81 7.04 5.86 6.84 5.94 6.7C6.1 6.37 6.37 6.1 6.7 5.94C6.84 5.86 7.04 5.81 7.41 5.78C7.79 5.75 8.28 5.75 9 5.75C9.71 5.75 10.2 5.75 10.58 5.78C10.95 5.81 11.15 5.86 11.29 5.94C11.62 6.1 11.89 6.37 12.05 6.7C12.13 6.84 12.18 7.04 12.21 7.41C12.24 7.79 12.25 8.28 12.25 9L12.25 12.54C12.25 12.62 12.25 12.7 12.25 12.77C12.25 12.81 12.25 12.85 12.25 12.89L12.25 21C12.25 21.01 12.25 21.02 12.25 21.04ZM7.25 22C7.25 21.58 7.58 21.25 8 21.25L10 21.25C10.41 21.25 10.75 21.58 10.75 22C10.75 22.41 10.41 22.75 10 22.75L8 22.75C7.58 22.75 7.25 22.41 7.25 22Z" fill="#1C274C" fill-opacity="1.000000" fill-rule="evenodd"/>
	</g>
</svg>
