<svg width="30.000000" height="30.000000" viewBox="0 0 30 30" fill="none" xmlns="http://www.w3.org/2000/svg" xmlns:xlink="http://www.w3.org/1999/xlink">
	<desc>
			Created with Pixso.
	</desc>
	<defs>
		<clipPath id="clip120_238">
			<rect id="Outline / Time / Calendar Add" rx="5.000000" width="30.000000" height="30.000000" fill="white" fill-opacity="0"/>
		</clipPath>
	</defs>
	<g clip-path="url(#clip120_238)">
		<path id="Vector" d="M10 4.75C10.41 4.75 10.75 5.08 10.75 5.5L10.75 6.26C11.41 6.25 12.14 6.25 12.94 6.25L17.05 6.25C17.85 6.25 18.58 6.25 19.25 6.26L19.25 5.5C19.25 5.08 19.58 4.75 20 4.75C20.41 4.75 20.75 5.08 20.75 5.5L20.75 6.32C21 6.34 21.25 6.37 21.48 6.4C22.66 6.56 23.61 6.89 24.35 7.64C25.1 8.38 25.43 9.33 25.59 10.51C25.64 10.88 25.68 11.29 25.7 11.74C25.73 11.82 25.75 11.9 25.75 12C25.75 12.06 25.74 12.13 25.72 12.2C25.75 13 25.75 13.91 25.75 14.94L25.75 17.05C25.75 18.89 25.75 20.34 25.59 21.48C25.43 22.66 25.1 23.61 24.35 24.35C23.61 25.1 22.66 25.43 21.48 25.59C20.34 25.75 18.89 25.75 17.05 25.75L12.94 25.75C11.1 25.75 9.65 25.75 8.51 25.59C7.33 25.43 6.38 25.1 5.64 24.35C4.89 23.61 4.56 22.66 4.4 21.48C4.25 20.34 4.25 18.89 4.25 17.05L4.25 14.94C4.25 13.91 4.25 13 4.27 12.2C4.25 12.13 4.25 12.06 4.25 12C4.25 11.9 4.26 11.82 4.29 11.74C4.31 11.29 4.35 10.88 4.4 10.51C4.56 9.33 4.89 8.38 5.64 7.64C6.38 6.89 7.33 6.56 8.51 6.4C8.74 6.37 8.99 6.34 9.25 6.32L9.25 5.5C9.25 5.08 9.58 4.75 10 4.75ZM5.76 12.75C5.75 13.4 5.75 14.14 5.75 15L5.75 17C5.75 18.9 5.75 20.26 5.88 21.28C6.02 22.29 6.27 22.87 6.7 23.29C7.12 23.72 7.7 23.97 8.71 24.11C9.73 24.24 11.09 24.25 13 24.25L17 24.25C18.9 24.25 20.26 24.24 21.28 24.11C22.29 23.97 22.87 23.72 23.29 23.29C23.72 22.87 23.97 22.29 24.11 21.28C24.24 20.26 24.25 18.9 24.25 17L24.25 15C24.25 14.14 24.24 13.4 24.23 12.75L5.76 12.75ZM24.16 11.25L5.83 11.25C5.84 11.06 5.86 10.88 5.88 10.71C6.02 9.7 6.27 9.12 6.7 8.7C7.12 8.27 7.7 8.02 8.71 7.88C9.73 7.75 11.09 7.75 13 7.75L17 7.75C18.9 7.75 20.26 7.75 21.28 7.88C22.29 8.02 22.87 8.27 23.29 8.7C23.72 9.12 23.97 9.7 24.11 10.71C24.13 10.88 24.15 11.06 24.16 11.25ZM19 16.25C19.41 16.25 19.75 16.58 19.75 17L19.75 18.25L21 18.25C21.41 18.25 21.75 18.58 21.75 19C21.75 19.41 21.41 19.75 21 19.75L19.75 19.75L19.75 21C19.75 21.41 19.41 21.75 19 21.75C18.58 21.75 18.25 21.41 18.25 21L18.25 19.75L17 19.75C16.58 19.75 16.25 19.41 16.25 19C16.25 18.58 16.58 18.25 17 18.25L18.25 18.25L18.25 17C18.25 16.58 18.58 16.25 19 16.25Z" fill="#1C274C" fill-opacity="1.000000" fill-rule="evenodd"/>
	</g>
</svg>
