<svg width="30.000000" height="30.000000" viewBox="0 0 30 30" fill="none" xmlns="http://www.w3.org/2000/svg" xmlns:xlink="http://www.w3.org/1999/xlink">
	<desc>
			Created with Pixso.
	</desc>
	<defs>
		<clipPath id="clip771_787">
			<rect id="Outline / Network, IT, Programming / Siderbar" rx="5.000000" width="30.000000" height="30.000000" fill="white" fill-opacity="0"/>
		</clipPath>
	</defs>
	<g clip-path="url(#clip771_787)">
		<path id="Vector" d="M8.51 5.4C9.65 5.25 11.1 5.25 12.94 5.25L17.05 5.25C17.37 5.25 17.67 5.25 17.96 5.25C17.97 5.25 17.98 5.25 18 5.25C18.01 5.25 18.02 5.25 18.03 5.25C19.42 5.25 20.56 5.27 21.48 5.4C22.66 5.56 23.61 5.89 24.35 6.64C25.1 7.38 25.43 8.33 25.59 9.51C25.75 10.65 25.75 12.1 25.75 13.94L25.75 16.05C25.75 17.89 25.75 19.34 25.59 20.48C25.43 21.66 25.1 22.61 24.35 23.35C23.61 24.1 22.66 24.43 21.48 24.59C20.56 24.72 19.42 24.74 18.03 24.74C18.02 24.74 18.01 24.75 18 24.75C17.98 24.75 17.97 24.74 17.96 24.74C17.67 24.75 17.37 24.75 17.06 24.75L12.94 24.75C11.1 24.75 9.65 24.75 8.51 24.59C7.33 24.43 6.38 24.1 5.64 23.35C4.89 22.61 4.56 21.66 4.4 20.48C4.25 19.34 4.25 17.89 4.25 16.05L4.25 13.94C4.25 12.1 4.25 10.65 4.4 9.51C4.56 8.33 4.89 7.38 5.64 6.64C6.38 5.89 7.33 5.56 8.51 5.4ZM17 6.75C17.08 6.75 17.16 6.75 17.25 6.75L17.25 23.25C17.16 23.25 17.08 23.25 17 23.25L13 23.25C11.09 23.25 9.73 23.24 8.71 23.11C7.7 22.97 7.12 22.72 6.7 22.29C6.27 21.87 6.02 21.29 5.88 20.28C5.75 19.26 5.75 17.9 5.75 16L5.75 14C5.75 12.09 5.75 10.73 5.88 9.71C6.02 8.7 6.27 8.12 6.7 7.7C7.12 7.27 7.7 7.02 8.71 6.88C9.73 6.75 11.09 6.75 13 6.75L17 6.75ZM21.28 23.11C20.6 23.2 19.78 23.23 18.75 23.24L18.75 6.75C19.78 6.76 20.6 6.79 21.28 6.88C22.29 7.02 22.87 7.27 23.29 7.7C23.72 8.12 23.97 8.7 24.11 9.71C24.24 10.73 24.25 12.09 24.25 14L24.25 16C24.25 17.9 24.24 19.26 24.11 20.28C23.97 21.29 23.72 21.87 23.29 22.29C22.87 22.72 22.29 22.97 21.28 23.11ZM8.5 12.25C8.08 12.25 7.75 12.58 7.75 13C7.75 13.41 8.08 13.75 8.5 13.75L14.5 13.75C14.91 13.75 15.25 13.41 15.25 13C15.25 12.58 14.91 12.25 14.5 12.25L8.5 12.25ZM8.75 17C8.75 16.58 9.08 16.25 9.5 16.25L13.5 16.25C13.91 16.25 14.25 16.58 14.25 17C14.25 17.41 13.91 17.75 13.5 17.75L9.5 17.75C9.08 17.75 8.75 17.41 8.75 17Z" fill="#1C274C" fill-opacity="1.000000" fill-rule="evenodd"/>
	</g>
</svg>
