<svg width="30.000000" height="30.000000" viewBox="0 0 30 30" fill="none" xmlns="http://www.w3.org/2000/svg" xmlns:xlink="http://www.w3.org/1999/xlink">
	<desc>
			Created with Pixso.
	</desc>
	<defs>
		<clipPath id="clip116_179">
			<rect id="Outline / Money / Ticker Star" width="30.000000" height="30.000000" fill="white" fill-opacity="0"/>
		</clipPath>
	</defs>
	<g clip-path="url(#clip116_179)">
		<path id="Vector (Stroke)" d="M12.93 6.25L17.06 6.25C18.9 6.25 20.35 6.25 21.5 6.4C22.67 6.56 23.62 6.89 24.37 7.64C25.48 8.75 25.69 10.32 25.74 12.47C25.76 13.21 25.18 13.66 24.69 13.79C24.16 13.93 23.76 14.42 23.76 15C23.76 15.57 24.16 16.06 24.69 16.2C25.18 16.33 25.76 16.78 25.74 17.52C25.69 19.67 25.48 21.24 24.37 22.35C23.62 23.1 22.67 23.43 21.5 23.59C20.35 23.75 18.9 23.75 17.06 23.75L12.93 23.75C11.09 23.75 9.64 23.75 8.49 23.59C7.32 23.43 6.37 23.1 5.62 22.35C4.51 21.24 4.3 19.67 4.25 17.52C4.23 16.78 4.81 16.33 5.3 16.2C5.83 16.06 6.23 15.57 6.23 15C6.23 14.42 5.83 13.93 5.3 13.79C4.81 13.66 4.23 13.21 4.25 12.47C4.3 10.32 4.51 8.75 5.62 7.64C6.37 6.89 7.32 6.56 8.49 6.4C9.64 6.25 11.09 6.25 12.93 6.25ZM8.69 7.88C7.69 8.02 7.1 8.27 6.68 8.7C6.05 9.32 5.81 10.27 5.75 12.36C6.89 12.69 7.73 13.74 7.73 15C7.73 16.25 6.89 17.3 5.75 17.63C5.81 19.72 6.05 20.67 6.68 21.29C7.1 21.72 7.69 21.97 8.69 22.11C9.72 22.24 11.08 22.25 12.99 22.25L17 22.25C18.91 22.25 20.27 22.24 21.3 22.11C22.3 21.97 22.89 21.72 23.31 21.29C23.94 20.67 24.18 19.72 24.24 17.63C23.1 17.3 22.26 16.25 22.26 15C22.26 13.74 23.1 12.69 24.24 12.36C24.18 10.27 23.94 9.32 23.31 8.7C22.89 8.27 22.3 8.02 21.3 7.88C20.27 7.75 18.91 7.75 17 7.75L12.99 7.75C11.08 7.75 9.72 7.75 8.69 7.88ZM15 13.03C14.94 13.13 14.87 13.25 14.8 13.38L14.7 13.56C14.69 13.57 14.68 13.58 14.68 13.6C14.6 13.74 14.47 13.98 14.25 14.15C14.03 14.31 13.76 14.37 13.61 14.41C13.59 14.41 13.58 14.41 13.56 14.41L13.37 14.46C13.2 14.5 13.05 14.53 12.93 14.56C13.01 14.66 13.12 14.78 13.25 14.94L13.38 15.09C13.39 15.1 13.4 15.11 13.41 15.12C13.52 15.25 13.69 15.45 13.77 15.71C13.85 15.96 13.82 16.23 13.81 16.39C13.81 16.41 13.8 16.43 13.8 16.44L13.78 16.64C13.76 16.83 13.75 16.98 13.74 17.1C13.84 17.06 13.96 17 14.1 16.94L14.28 16.86C14.3 16.85 14.31 16.84 14.32 16.84C14.47 16.77 14.72 16.65 15 16.65C15.27 16.65 15.52 16.77 15.67 16.84C15.68 16.84 15.7 16.85 15.71 16.86L15.89 16.94C16.03 17 16.15 17.06 16.25 17.1C16.24 16.98 16.23 16.83 16.21 16.64L16.19 16.44C16.19 16.43 16.18 16.41 16.18 16.39C16.17 16.23 16.14 15.96 16.22 15.71C16.3 15.45 16.47 15.25 16.58 15.12C16.59 15.11 16.6 15.1 16.61 15.09L16.74 14.94C16.87 14.78 16.98 14.66 17.06 14.56C16.94 14.53 16.79 14.5 16.62 14.46L16.43 14.41C16.41 14.41 16.4 14.41 16.38 14.41C16.23 14.37 15.96 14.31 15.74 14.15C15.52 13.98 15.39 13.74 15.31 13.6C15.31 13.58 15.3 13.57 15.29 13.56L15.19 13.38C15.12 13.25 15.05 13.13 15 13.03ZM14.01 11.79C14.18 11.57 14.49 11.25 15 11.25C15.5 11.25 15.81 11.57 15.98 11.79C16.15 12.01 16.31 12.31 16.48 12.61C16.49 12.62 16.5 12.64 16.5 12.65L16.6 12.83C16.63 12.87 16.64 12.9 16.66 12.93C16.69 12.94 16.72 12.94 16.76 12.95L16.95 13C16.96 13 16.98 13 17 13.01C17.32 13.08 17.65 13.15 17.9 13.25C18.18 13.36 18.55 13.57 18.69 14.04C18.84 14.49 18.66 14.88 18.5 15.13C18.36 15.36 18.14 15.61 17.91 15.88C17.9 15.89 17.89 15.9 17.88 15.91L17.75 16.06C17.72 16.1 17.69 16.13 17.67 16.16C17.67 16.2 17.68 16.24 17.68 16.3L17.7 16.5C17.7 16.51 17.7 16.53 17.71 16.55C17.74 16.9 17.77 17.24 17.76 17.51C17.75 17.79 17.68 18.23 17.29 18.52C16.89 18.82 16.45 18.76 16.17 18.68C15.91 18.6 15.61 18.46 15.3 18.32C15.29 18.32 15.27 18.31 15.26 18.3L15.08 18.22C15.05 18.2 15.02 18.19 15 18.18C14.97 18.19 14.94 18.2 14.91 18.22L14.73 18.3C14.72 18.31 14.7 18.32 14.69 18.32C14.38 18.46 14.08 18.6 13.82 18.68C13.54 18.76 13.1 18.82 12.7 18.52C12.31 18.23 12.24 17.79 12.23 17.51C12.22 17.24 12.25 16.9 12.29 16.55C12.29 16.53 12.29 16.51 12.29 16.5L12.31 16.3C12.31 16.24 12.32 16.2 12.32 16.16C12.3 16.13 12.27 16.1 12.24 16.06L12.11 15.91C12.1 15.9 12.09 15.89 12.08 15.88C11.85 15.61 11.63 15.36 11.49 15.13C11.33 14.88 11.15 14.49 11.3 14.04C11.44 13.57 11.81 13.36 12.09 13.25C12.34 13.15 12.67 13.08 12.99 13.01C13.01 13 13.03 13 13.04 13L13.23 12.95C13.27 12.94 13.3 12.94 13.33 12.93C13.35 12.9 13.36 12.87 13.39 12.83L13.49 12.65C13.49 12.64 13.5 12.62 13.51 12.61C13.68 12.31 13.84 12.01 14.01 11.79Z" fill="#1C274C" fill-opacity="1.000000" fill-rule="evenodd"/>
	</g>
</svg>
