<svg width="30.000000" height="30.000000" viewBox="0 0 30 30" fill="none" xmlns="http://www.w3.org/2000/svg" xmlns:xlink="http://www.w3.org/1999/xlink">
	<desc>
			Created with Pixso.
	</desc>
	<defs>
		<clipPath id="clip116_201">
			<rect id="Outline / Money / Card" width="30.000000" height="30.000000" fill="white" fill-opacity="0"/>
		</clipPath>
	</defs>
	<g clip-path="url(#clip116_201)">
		<path id="Vector (Stroke)" d="M12.94 6.25L17.05 6.25C18.89 6.25 20.34 6.25 21.48 6.4C22.66 6.56 23.61 6.89 24.35 7.64C25.1 8.38 25.43 9.33 25.59 10.51C25.68 11.18 25.72 11.96 25.73 12.87C25.74 12.91 25.75 12.95 25.75 13C25.75 13.03 25.74 13.07 25.74 13.1C25.75 13.66 25.75 14.28 25.75 14.94L25.75 15.05C25.75 16.89 25.75 18.34 25.59 19.48C25.43 20.66 25.1 21.61 24.35 22.35C23.61 23.1 22.66 23.43 21.48 23.59C20.34 23.75 18.89 23.75 17.05 23.75L12.94 23.75C11.1 23.75 9.65 23.75 8.51 23.59C7.33 23.43 6.38 23.1 5.64 22.35C4.89 21.61 4.56 20.66 4.4 19.48C4.25 18.34 4.25 16.89 4.25 15.05L4.25 14.94C4.25 14.28 4.25 13.66 4.25 13.1C4.25 13.07 4.25 13.03 4.25 13C4.25 12.95 4.25 12.91 4.26 12.87C4.27 11.96 4.31 11.18 4.4 10.51C4.56 9.33 4.89 8.38 5.64 7.64C6.38 6.89 7.33 6.56 8.51 6.4C9.65 6.25 11.1 6.25 12.94 6.25ZM5.75 13.75C5.75 14.13 5.75 14.55 5.75 15C5.75 16.9 5.75 18.26 5.88 19.28C6.02 20.29 6.27 20.87 6.7 21.29C7.12 21.72 7.7 21.97 8.71 22.11C9.73 22.24 11.09 22.25 13 22.25L17 22.25C18.9 22.25 20.26 22.24 21.28 22.11C22.29 21.97 22.87 21.72 23.29 21.29C23.72 20.87 23.97 20.29 24.11 19.28C24.24 18.26 24.25 16.9 24.25 15C24.25 14.55 24.25 14.13 24.24 13.75L5.75 13.75ZM24.22 12.25L5.77 12.25C5.79 11.66 5.83 11.15 5.88 10.71C6.02 9.7 6.27 9.12 6.7 8.7C7.12 8.27 7.7 8.02 8.71 7.88C9.73 7.75 11.09 7.75 13 7.75L17 7.75C18.9 7.75 20.26 7.75 21.28 7.88C22.29 8.02 22.87 8.27 23.29 8.7C23.72 9.12 23.97 9.7 24.11 10.71C24.16 11.15 24.2 11.66 24.22 12.25ZM8.25 19C8.25 18.58 8.58 18.25 9 18.25L13 18.25C13.41 18.25 13.75 18.58 13.75 19C13.75 19.41 13.41 19.75 13 19.75L9 19.75C8.58 19.75 8.25 19.41 8.25 19ZM14.75 19C14.75 18.58 15.08 18.25 15.5 18.25L17 18.25C17.41 18.25 17.75 18.58 17.75 19C17.75 19.41 17.41 19.75 17 19.75L15.5 19.75C15.08 19.75 14.75 19.41 14.75 19Z" fill="#1C274C" fill-opacity="1.000000" fill-rule="evenodd"/>
	</g>
</svg>
