<svg width="30.000000" height="30.000000" viewBox="0 0 30 30" fill="none" xmlns="http://www.w3.org/2000/svg" xmlns:xlink="http://www.w3.org/1999/xlink">
	<desc>
			Created with Pixso.
	</desc>
	<defs>
		<clipPath id="clip120_237">
			<rect id="Outline / Business, Statistic / Graph New Up" width="30.000000" height="30.000000" fill="white" fill-opacity="0"/>
		</clipPath>
	</defs>
	<g clip-path="url(#clip120_237)">
		<path id="Vector" d="M14.94 4.25L16.5 4.25C16.91 4.25 17.25 4.58 17.25 5C17.25 5.41 16.91 5.75 16.5 5.75L15 5.75C12.62 5.75 10.91 5.75 9.61 5.92C8.33 6.09 7.56 6.42 6.99 6.99C6.42 7.56 6.09 8.33 5.92 9.61C5.75 10.91 5.75 12.62 5.75 15C5.75 17.37 5.75 19.08 5.92 20.38C6.09 21.66 6.42 22.43 6.99 23C7.56 23.57 8.33 23.9 9.61 24.07C10.91 24.24 12.62 24.25 15 24.25C17.37 24.25 19.08 24.24 20.38 24.07C21.66 23.9 22.43 23.57 23 23C23.57 22.43 23.9 21.66 24.07 20.38C24.24 19.08 24.25 17.37 24.25 15L24.25 13.5C24.25 13.08 24.58 12.75 25 12.75C25.41 12.75 25.75 13.08 25.75 13.5L25.75 15.05C25.75 17.36 25.75 19.17 25.56 20.58C25.36 22.03 24.96 23.17 24.06 24.06C23.17 24.96 22.03 25.36 20.58 25.56C19.17 25.75 17.36 25.75 15.05 25.75L14.94 25.75C12.63 25.75 10.82 25.75 9.41 25.56C7.96 25.36 6.82 24.96 5.93 24.06C5.03 23.17 4.63 22.03 4.43 20.58C4.25 19.17 4.25 17.36 4.25 15.05L4.25 14.94C4.25 12.63 4.25 10.82 4.43 9.41C4.63 7.96 5.03 6.82 5.93 5.93C6.82 5.03 7.96 4.63 9.41 4.43C10.82 4.25 12.63 4.25 14.94 4.25ZM18.25 8C18.25 5.92 19.92 4.25 22 4.25C24.07 4.25 25.75 5.92 25.75 8C25.75 10.07 24.07 11.75 22 11.75C19.92 11.75 18.25 10.07 18.25 8ZM22 5.75C20.75 5.75 19.75 6.75 19.75 8C19.75 9.24 20.75 10.25 22 10.25C23.24 10.25 24.25 9.24 24.25 8C24.25 6.75 23.24 5.75 22 5.75ZM17.5 13.75C17.08 13.75 16.75 13.41 16.75 13C16.75 12.58 17.08 12.25 17.5 12.25L20 12.25C20.41 12.25 20.75 12.58 20.75 13L20.75 15.5C20.75 15.91 20.41 16.25 20 16.25C19.58 16.25 19.25 15.91 19.25 15.5L19.25 14.81L17.23 16.82C16.55 17.5 15.44 17.5 14.76 16.82L13.17 15.23C13.07 15.13 12.92 15.13 12.82 15.23L10.53 17.53C10.23 17.82 9.76 17.82 9.46 17.53C9.17 17.23 9.17 16.76 9.46 16.46L11.76 14.17C12.44 13.49 13.55 13.49 14.23 14.17L15.82 15.76C15.92 15.86 16.07 15.86 16.17 15.76L18.18 13.75L17.5 13.75Z" fill="#1C274C" fill-opacity="1.000000" fill-rule="evenodd"/>
	</g>
</svg>
