<svg width="30.000000" height="30.000000" viewBox="0 0 30 30" fill="none" xmlns="http://www.w3.org/2000/svg" xmlns:xlink="http://www.w3.org/1999/xlink">
	<desc>
			Created with Pixso.
	</desc>
	<defs>
		<clipPath id="clip116_193">
			<rect id="Outline / Money / Sale Square" width="30.000000" height="30.000000" fill="white" fill-opacity="0"/>
		</clipPath>
	</defs>
	<g clip-path="url(#clip116_193)">
		<path id="Vector" d="M15.05 4.25L14.94 4.25C12.63 4.25 10.82 4.25 9.41 4.43C7.96 4.63 6.82 5.03 5.93 5.93C5.03 6.82 4.63 7.96 4.43 9.41C4.25 10.82 4.25 12.63 4.25 14.94L4.25 15.05C4.25 17.36 4.25 19.17 4.43 20.58C4.63 22.03 5.03 23.17 5.93 24.06C6.82 24.96 7.96 25.36 9.41 25.56C10.82 25.75 12.63 25.75 14.94 25.75L15.05 25.75C17.36 25.75 19.17 25.75 20.58 25.56C22.03 25.36 23.17 24.96 24.06 24.06C24.96 23.17 25.36 22.03 25.56 20.58C25.75 19.17 25.75 17.36 25.75 15.05L25.75 14.94C25.75 12.63 25.75 10.82 25.56 9.41C25.36 7.96 24.96 6.82 24.06 5.93C23.17 5.03 22.03 4.63 20.58 4.43C19.17 4.25 17.36 4.25 15.05 4.25ZM6.99 6.99C7.56 6.42 8.33 6.09 9.61 5.92C10.91 5.75 12.62 5.75 15 5.75C17.37 5.75 19.08 5.75 20.38 5.92C21.66 6.09 22.43 6.42 23 6.99C23.57 7.56 23.9 8.33 24.07 9.61C24.24 10.91 24.25 12.62 24.25 15C24.25 17.37 24.24 19.08 24.07 20.38C23.9 21.66 23.57 22.43 23 23C22.43 23.57 21.66 23.9 20.38 24.07C19.08 24.24 17.37 24.25 15 24.25C12.62 24.25 10.91 24.24 9.61 24.07C8.33 23.9 7.56 23.57 6.99 23C6.42 22.43 6.09 21.66 5.92 20.38C5.75 19.08 5.75 17.37 5.75 15C5.75 12.62 5.75 10.91 5.92 9.61C6.09 8.33 6.42 7.56 6.99 6.99ZM18.53 11.46C18.82 11.76 18.82 12.23 18.53 12.53L12.53 18.53C12.23 18.82 11.76 18.82 11.46 18.53C11.17 18.23 11.17 17.76 11.46 17.46L17.46 11.46C17.76 11.17 18.23 11.17 18.53 11.46ZM12.5 13.5C13.05 13.5 13.5 13.05 13.5 12.5C13.5 11.94 13.05 11.5 12.5 11.5C11.94 11.5 11.5 11.94 11.5 12.5C11.5 13.05 11.94 13.5 12.5 13.5ZM17.5 18.5C18.05 18.5 18.5 18.05 18.5 17.5C18.5 16.94 18.05 16.5 17.5 16.5C16.94 16.5 16.5 16.94 16.5 17.5C16.5 18.05 16.94 18.5 17.5 18.5Z" fill="#1C274C" fill-opacity="1.000000" fill-rule="evenodd"/>
	</g>
</svg>
