<svg width="30.000000" height="30.000000" viewBox="0 0 30 30" fill="none" xmlns="http://www.w3.org/2000/svg" xmlns:xlink="http://www.w3.org/1999/xlink">
	<desc>
			Created with Pixso.
	</desc>
	<defs>
		<clipPath id="clip120_247">
			<rect id="Outline / Money / Bill List" width="30.000000" height="30.000000" fill="white" fill-opacity="0"/>
		</clipPath>
	</defs>
	<g clip-path="url(#clip120_247)">
		<path id="Vector (Stroke)" d="M10.09 4.25C10.14 4.25 10.19 4.25 10.24 4.25L19.75 4.25C19.8 4.25 19.85 4.25 19.9 4.25C20.91 4.25 21.61 4.24 22.2 4.45C23.32 4.84 24.18 5.73 24.55 6.86L23.84 7.09L24.55 6.86C24.75 7.46 24.75 8.17 24.75 9.22C24.75 9.27 24.75 9.32 24.75 9.37L24.75 23.37C24.75 24.83 23.02 25.71 21.88 24.67C21.8 24.59 21.69 24.59 21.61 24.67L21.13 25.11C20.2 25.96 18.79 25.96 17.86 25.11C17.51 24.78 16.98 24.78 16.63 25.11C15.7 25.96 14.29 25.96 13.36 25.11C13.01 24.78 12.48 24.78 12.13 25.11C11.2 25.96 9.79 25.96 8.86 25.11L8.38 24.67C8.3 24.59 8.19 24.59 8.11 24.67C6.97 25.71 5.25 24.83 5.25 23.37L5.25 9.37C5.25 9.32 5.25 9.27 5.25 9.22C5.24 8.17 5.24 7.46 5.44 6.86C5.81 5.73 6.68 4.84 7.79 4.45C8.38 4.24 9.08 4.25 10.09 4.25ZM10.24 5.75C9.02 5.75 8.6 5.76 8.28 5.87C7.62 6.1 7.09 6.63 6.87 7.33C6.75 7.67 6.75 8.11 6.75 9.37L6.75 23.37C6.75 23.49 6.81 23.56 6.88 23.6C6.92 23.61 6.96 23.62 6.99 23.61C7.02 23.61 7.05 23.6 7.1 23.56C7.75 22.96 8.74 22.96 9.39 23.56L9.88 24C10.23 24.33 10.76 24.33 11.11 24C12.04 23.15 13.45 23.15 14.38 24C14.73 24.33 15.26 24.33 15.61 24C16.54 23.15 17.95 23.15 18.88 24C19.23 24.33 19.76 24.33 20.11 24L20.6 23.56C21.25 22.96 22.24 22.96 22.89 23.56C22.94 23.6 22.97 23.61 23 23.61C23.03 23.62 23.07 23.61 23.11 23.6C23.18 23.56 23.25 23.49 23.25 23.37L23.25 9.37C23.25 8.11 23.24 7.67 23.12 7.33C22.9 6.63 22.37 6.1 21.71 5.87C21.39 5.76 20.97 5.75 19.75 5.75L10.24 5.75ZM9.25 10.5C9.25 10.08 9.58 9.75 10 9.75L10.5 9.75C10.91 9.75 11.25 10.08 11.25 10.5C11.25 10.91 10.91 11.25 10.5 11.25L10 11.25C9.58 11.25 9.25 10.91 9.25 10.5ZM12.75 10.5C12.75 10.08 13.08 9.75 13.5 9.75L20 9.75C20.41 9.75 20.75 10.08 20.75 10.5C20.75 10.91 20.41 11.25 20 11.25L13.5 11.25C13.08 11.25 12.75 10.91 12.75 10.5ZM9.25 14C9.25 13.58 9.58 13.25 10 13.25L10.5 13.25C10.91 13.25 11.25 13.58 11.25 14C11.25 14.41 10.91 14.75 10.5 14.75L10 14.75C9.58 14.75 9.25 14.41 9.25 14ZM12.75 14C12.75 13.58 13.08 13.25 13.5 13.25L20 13.25C20.41 13.25 20.75 13.58 20.75 14C20.75 14.41 20.41 14.75 20 14.75L13.5 14.75C13.08 14.75 12.75 14.41 12.75 14ZM9.25 17.5C9.25 17.08 9.58 16.75 10 16.75L10.5 16.75C10.91 16.75 11.25 17.08 11.25 17.5C11.25 17.91 10.91 18.25 10.5 18.25L10 18.25C9.58 18.25 9.25 17.91 9.25 17.5ZM12.75 17.5C12.75 17.08 13.08 16.75 13.5 16.75L20 16.75C20.41 16.75 20.75 17.08 20.75 17.5C20.75 17.91 20.41 18.25 20 18.25L13.5 18.25C13.08 18.25 12.75 17.91 12.75 17.5Z" fill="#1C274C" fill-opacity="1.000000" fill-rule="evenodd"/>
	</g>
</svg>
