<svg width="30.000000" height="30.000000" viewBox="0 0 30 30" fill="none" xmlns="http://www.w3.org/2000/svg" xmlns:xlink="http://www.w3.org/1999/xlink">
	<desc>
			Created with Pixso.
	</desc>
	<defs>
		<clipPath id="clip120_235">
			<rect id="Outline / Messages, Coversation / Plain 2" width="30.000000" height="30.000000" fill="white" fill-opacity="0"/>
		</clipPath>
	</defs>
	<g clip-path="url(#clip120_235)">
		<path id="Vector" d="M22.37 5.82C21.38 6 20.04 6.45 18.14 7.08L8.81 10.19C7.75 10.54 7.02 10.79 6.51 11.03C6.01 11.27 5.88 11.44 5.82 11.57C5.78 11.67 5.75 11.78 5.75 11.9C5.74 12.03 5.78 12.25 6.12 12.69C6.47 13.13 7.01 13.67 7.8 14.47L8.08 14.75C8.09 14.76 8.11 14.78 8.12 14.79C8.34 15 8.51 15.18 8.65 15.38C8.92 15.78 9.07 16.24 9.09 16.72C9.1 16.96 9.06 17.21 9.02 17.51C9.01 17.53 9.01 17.54 9.01 17.56C8.91 18.22 8.84 18.69 8.81 19.05C8.78 19.41 8.79 19.6 8.82 19.74C8.84 19.84 8.87 19.93 8.91 20.02L23.18 5.75C22.97 5.74 22.7 5.76 22.37 5.82ZM25.04 4.95C25.8 5.72 25.84 6.76 25.64 7.88C25.44 9 24.96 10.44 24.36 12.26L21.19 21.77C20.86 22.74 20.6 23.53 20.32 24.12C20.03 24.72 19.66 25.26 19.05 25.53C18.76 25.65 18.45 25.73 18.14 25.74C17.47 25.78 16.9 25.46 16.38 25.05C15.86 24.65 15.27 24.06 14.54 23.33L14.26 23.05C13.97 22.76 13.9 22.69 13.83 22.65C13.67 22.54 13.49 22.48 13.3 22.47C13.22 22.46 13.12 22.47 12.72 22.53L12.62 22.54C11.99 22.63 11.48 22.7 11.07 22.73C10.65 22.76 10.27 22.75 9.91 22.67C8.64 22.36 7.65 21.35 7.36 20.08C7.27 19.71 7.28 19.33 7.31 18.91C7.35 18.5 7.43 18 7.52 17.37L7.52 17.34C7.58 16.96 7.59 16.86 7.59 16.78C7.58 16.58 7.52 16.39 7.41 16.22C7.36 16.15 7.29 16.08 7.02 15.81L6.7 15.49C5.95 14.75 5.35 14.14 4.94 13.61C4.52 13.07 4.2 12.48 4.25 11.79C4.27 11.52 4.33 11.25 4.44 10.99C4.7 10.36 5.25 9.97 5.86 9.68C6.47 9.39 7.28 9.12 8.28 8.78L17.73 5.63C19.55 5.03 20.99 4.55 22.11 4.35C23.23 4.15 24.27 4.19 25.04 4.95ZM24.25 6.81L9.95 21.1C10.05 21.15 10.16 21.18 10.27 21.21C10.4 21.24 10.6 21.26 10.96 21.23C11.32 21.2 11.78 21.14 12.45 21.05L12.52 21.04C12.54 21.04 12.56 21.04 12.58 21.03C12.89 20.99 13.14 20.96 13.39 20.97C13.85 21 14.29 21.15 14.66 21.4C14.87 21.54 15.05 21.72 15.28 21.94C15.29 21.96 15.3 21.97 15.32 21.99L15.57 22.24C16.34 23.01 16.87 23.53 17.3 23.87C17.73 24.21 17.94 24.25 18.07 24.24C18.2 24.24 18.32 24.21 18.44 24.16C18.56 24.1 18.73 23.97 18.96 23.48C19.2 22.98 19.44 22.28 19.78 21.24L22.91 11.85C23.54 9.95 23.99 8.61 24.17 7.62C24.23 7.29 24.25 7.02 24.25 6.81Z" fill="#1C274C" fill-opacity="1.000000" fill-rule="evenodd"/>
	</g>
</svg>
