<svg width="30.000000" height="30.000000" viewBox="0 0 30 30" fill="none" xmlns="http://www.w3.org/2000/svg" xmlns:xlink="http://www.w3.org/1999/xlink">
	<desc>
			Created with Pixso.
	</desc>
	<defs>
		<clipPath id="clip116_195">
			<rect id="Outline / Mesages, Conversation / Mailbox" width="30.000000" height="30.000000" fill="white" fill-opacity="0"/>
		</clipPath>
	</defs>
	<g clip-path="url(#clip116_195)">
		<path id="Vector" d="M21.37 6.02C20.94 5.86 20.47 5.82 20.02 5.9L19.75 5.96L19.75 7.61C20.47 7.47 21.22 7.54 21.91 7.81C22.33 7.97 22.8 8.01 23.25 7.93L23.25 6.27C22.64 6.35 22.02 6.28 21.45 6.05L21.37 6.02ZM19.75 9.14L20.02 9.09C20.47 9 20.94 9.04 21.37 9.21C22.11 9.5 22.93 9.55 23.71 9.36L23.78 9.35C24.35 9.21 24.75 8.7 24.75 8.12L24.75 5.9C24.75 5.13 24.03 4.56 23.28 4.74C22.85 4.84 22.4 4.81 21.99 4.66L21.91 4.62C21.22 4.36 20.46 4.29 19.74 4.43L19.25 4.53C18.67 4.64 18.25 5.15 18.25 5.75L18.25 9.25L10 9.25C9.95 9.25 9.9 9.25 9.86 9.26C9.74 9.25 9.62 9.25 9.5 9.25C6.6 9.25 4.25 11.59 4.25 14.5L4.25 19.76C4.25 21.41 5.58 22.75 7.23 22.75L12.75 22.75L12.75 25C12.75 25.41 13.08 25.75 13.5 25.75C13.91 25.75 14.25 25.41 14.25 25L14.25 22.75L16.75 22.75L16.75 25C16.75 25.41 17.08 25.75 17.5 25.75C17.91 25.75 18.25 25.41 18.25 25L18.25 22.75L22.79 22.75C24.42 22.75 25.75 21.42 25.75 19.79L25.75 14.5C25.75 11.59 23.39 9.25 20.5 9.25L19.75 9.25L19.75 9.14ZM18.25 10.75L18.25 14C18.25 14.41 18.58 14.75 19 14.75C19.41 14.75 19.75 14.41 19.75 14L19.75 10.75L20.5 10.75C22.57 10.75 24.25 12.42 24.25 14.5L24.25 19.79C24.25 20.59 23.59 21.25 22.79 21.25L14.75 21.25L14.75 14.5C14.75 13.03 14.14 11.7 13.17 10.75L18.25 10.75ZM13.25 21.25L13.25 14.5C13.25 12.42 11.57 10.75 9.5 10.75C7.42 10.75 5.75 12.42 5.75 14.5L5.75 19.76C5.75 20.58 6.41 21.25 7.23 21.25L13.25 21.25ZM7.25 19C7.25 18.58 7.58 18.25 8 18.25L11 18.25C11.41 18.25 11.75 18.58 11.75 19C11.75 19.41 11.41 19.75 11 19.75L8 19.75C7.58 19.75 7.25 19.41 7.25 19Z" fill="#1C274C" fill-opacity="1.000000" fill-rule="evenodd"/>
	</g>
</svg>
