<svg width="30.000000" height="30.000000" viewBox="0 0 30 30" fill="none" xmlns="http://www.w3.org/2000/svg" xmlns:xlink="http://www.w3.org/1999/xlink">
	<desc>
			Created with Pixso.
	</desc>
	<defs>
		<clipPath id="clip120_236">
			<rect id="Outline / Shopping, Ecommerce / Shop" width="30.000000" height="30.000000" fill="white" fill-opacity="0"/>
		</clipPath>
	</defs>
	<g clip-path="url(#clip120_236)">
		<path id="Vector" d="M10.3 4.25C9.5 4.25 8.95 4.25 8.46 4.38C7.44 4.66 6.58 5.36 6.1 6.31C5.88 6.77 5.77 7.31 5.61 8.09L4.99 11.19C4.76 12.35 5.08 13.47 5.75 14.31L5.75 17.05C5.74 18.89 5.74 20.34 5.9 21.48C6.06 22.66 6.39 23.61 7.14 24.35C7.88 25.1 8.83 25.43 10.01 25.59C11.14 25.75 12.6 25.75 14.44 25.75L15.55 25.75C17.39 25.75 18.84 25.75 19.98 25.59C21.16 25.43 22.11 25.1 22.85 24.35C23.6 23.61 23.93 22.66 24.09 21.48C24.25 20.34 24.25 18.89 24.25 17.05L24.25 14.31C24.91 13.47 25.23 12.35 25 11.19L24.38 8.09C24.22 7.31 24.11 6.77 23.89 6.31C23.41 5.36 22.55 4.66 21.53 4.38C21.04 4.25 20.49 4.25 19.69 4.25L10.3 4.25ZM21.26 15.75C21.79 15.75 22.29 15.64 22.75 15.45L22.75 17C22.75 18.9 22.74 20.26 22.6 21.28C22.47 22.29 22.22 22.87 21.79 23.29C21.37 23.72 20.79 23.97 19.78 24.11C19.34 24.16 18.83 24.2 18.25 24.22L18.25 21.46C18.25 21.02 18.25 20.64 18.22 20.33C18.19 20 18.12 19.68 17.94 19.37C17.75 19.03 17.46 18.74 17.12 18.55C16.81 18.37 16.49 18.3 16.16 18.27C15.85 18.25 15.47 18.25 15.03 18.25L14.96 18.25C14.52 18.25 14.14 18.25 13.83 18.27C13.5 18.3 13.18 18.37 12.87 18.55C12.53 18.74 12.24 19.03 12.05 19.37C11.87 19.68 11.8 20 11.77 20.33C11.74 20.64 11.74 21.02 11.75 21.46L11.75 24.22C11.16 24.2 10.65 24.16 10.21 24.11C9.2 23.97 8.62 23.72 8.2 23.29C7.77 22.87 7.52 22.29 7.38 21.28C7.25 20.26 7.25 18.9 7.25 17L7.25 15.45C7.7 15.64 8.2 15.75 8.73 15.75C10 15.75 11.14 15.12 11.83 14.14C12.54 15.11 13.69 15.75 14.99 15.75C16.3 15.75 17.45 15.11 18.16 14.14C18.85 15.12 19.99 15.75 21.26 15.75ZM13.25 24.24C13.63 24.25 14.05 24.25 14.5 24.25L15.5 24.25C15.94 24.25 16.36 24.25 16.75 24.24L16.75 21.5C16.75 21.01 16.74 20.7 16.72 20.47C16.7 20.24 16.67 20.16 16.64 20.12C16.58 20.01 16.48 19.91 16.37 19.85C16.33 19.82 16.25 19.79 16.02 19.77C15.79 19.75 15.48 19.75 15 19.75C14.51 19.75 14.2 19.75 13.97 19.77C13.74 19.79 13.66 19.82 13.62 19.85C13.51 19.91 13.41 20.01 13.35 20.12C13.32 20.16 13.29 20.24 13.27 20.47C13.25 20.7 13.25 21.01 13.25 21.5L13.25 24.24ZM11.67 5.75L10.41 5.75C9.46 5.75 9.13 5.75 8.86 5.83C8.24 5.99 7.73 6.42 7.44 6.99C7.32 7.23 7.25 7.56 7.06 8.49L6.46 11.48C6.18 12.91 7.27 14.25 8.73 14.25C9.91 14.25 10.91 13.35 11.02 12.17L11.09 11.48L11.1 11.44L11.67 5.75ZM12.59 11.62L13.17 5.75L16.82 5.75L17.4 11.59C17.54 13.01 16.42 14.25 14.99 14.25C13.58 14.25 12.46 13.03 12.59 11.62ZM21.13 5.83C20.86 5.75 20.53 5.75 19.58 5.75L18.32 5.75L18.97 12.17C19.08 13.35 20.08 14.25 21.26 14.25C22.72 14.25 23.81 12.91 23.53 11.48L22.93 8.49C22.74 7.56 22.67 7.23 22.55 6.99C22.26 6.42 21.75 5.99 21.13 5.83Z" fill="#1C274C" fill-opacity="1.000000" fill-rule="evenodd"/>
	</g>
</svg>
