<svg width="30.000000" height="30.000000" viewBox="0 0 30 30" fill="none" xmlns="http://www.w3.org/2000/svg" xmlns:xlink="http://www.w3.org/1999/xlink">
	<desc>
			Created with Pixso.
	</desc>
	<defs>
		<clipPath id="clip861_43">
			<rect id="Outline / Shopping, Ecommerce / Cart Check" width="30.000000" height="30.000000" fill="white" fill-opacity="0"/>
		</clipPath>
	</defs>
	<g clip-path="url(#clip861_43)">
		<path id="Vector" d="M5.24 5.29C4.85 5.15 4.43 5.36 4.29 5.75C4.15 6.14 4.36 6.57 4.75 6.7L5.01 6.79C5.68 7.03 6.11 7.18 6.44 7.34C6.74 7.49 6.87 7.61 6.96 7.74C7.05 7.87 7.12 8.05 7.16 8.42C7.2 8.8 7.2 9.29 7.2 10.03L7.2 12.75C7.2 14.21 7.22 15.25 7.35 16.06C7.5 16.91 7.79 17.52 8.34 18.1C8.93 18.72 9.69 19 10.58 19.12C11.44 19.25 12.53 19.25 13.88 19.25L19.28 19.25C20.02 19.25 20.65 19.25 21.15 19.18C21.69 19.12 22.18 18.97 22.6 18.63C23.03 18.28 23.27 17.83 23.44 17.32C23.6 16.84 23.73 16.22 23.88 15.5L24.39 13.03L24.39 13.02L24.4 12.97C24.56 12.15 24.7 11.45 24.74 10.9C24.77 10.31 24.71 9.73 24.32 9.23C24.09 8.93 23.76 8.76 23.46 8.65C23.15 8.54 22.81 8.48 22.46 8.44C21.77 8.36 20.93 8.36 20.12 8.36L8.66 8.36C8.66 8.33 8.66 8.29 8.65 8.26C8.6 7.76 8.48 7.31 8.2 6.89C7.92 6.48 7.54 6.21 7.1 6C6.69 5.79 6.16 5.61 5.55 5.39L5.24 5.29ZM8.7 12.75L8.7 9.86L20.08 9.86C20.94 9.86 21.69 9.87 22.29 9.93C22.58 9.97 22.81 10.01 22.96 10.07C23.09 10.11 23.13 10.15 23.14 10.15C23.2 10.23 23.27 10.38 23.24 10.8C23.21 11.25 23.1 11.84 22.92 12.73L22.92 12.73L22.42 15.15C22.26 15.93 22.15 16.45 22.02 16.84C21.9 17.2 21.78 17.36 21.66 17.46C21.53 17.57 21.35 17.65 20.97 17.69C20.57 17.74 20.04 17.75 19.24 17.75L13.93 17.75C12.52 17.75 11.53 17.74 10.79 17.64C10.08 17.54 9.7 17.35 9.43 17.07C9.11 16.73 8.93 16.4 8.83 15.8C8.72 15.15 8.7 14.24 8.7 12.75ZM18.51 11.45C18.81 11.74 18.82 12.21 18.54 12.51L15.68 15.51C15.54 15.66 15.34 15.75 15.14 15.75C14.93 15.75 14.74 15.66 14.6 15.51L13.45 14.31C13.17 14.01 13.18 13.54 13.48 13.25C13.78 12.97 14.25 12.98 14.54 13.28L15.14 13.91L17.45 11.48C17.74 11.18 18.21 11.17 18.51 11.45ZM8.25 22.5C8.25 23.74 9.25 24.75 10.5 24.75C11.74 24.75 12.75 23.74 12.75 22.5C12.75 21.25 11.74 20.25 10.5 20.25C9.25 20.25 8.25 21.25 8.25 22.5ZM19.5 24.75C18.25 24.75 17.25 23.74 17.25 22.5C17.25 21.25 18.25 20.25 19.5 20.25C20.74 20.25 21.75 21.25 21.75 22.5C21.75 23.74 20.74 24.75 19.5 24.75ZM10.5 23.25C10.08 23.25 9.75 22.91 9.75 22.5C9.75 22.08 10.08 21.75 10.5 21.75C10.91 21.75 11.25 22.08 11.25 22.5C11.25 22.91 10.91 23.25 10.5 23.25ZM18.75 22.5C18.75 22.91 19.08 23.25 19.5 23.25C19.91 23.25 20.25 22.91 20.25 22.5C20.25 22.08 19.91 21.75 19.5 21.75C19.08 21.75 18.75 22.08 18.75 22.5Z" fill="#1C274C" fill-opacity="1.000000" fill-rule="evenodd"/>
	</g>
</svg>
