<svg width="30.000000" height="30.000000" viewBox="0 0 30 30" fill="none" xmlns="http://www.w3.org/2000/svg" xmlns:xlink="http://www.w3.org/1999/xlink">
	<desc>
			Created with Pixso.
	</desc>
	<defs>
		<clipPath id="clip861_101">
			<rect id="Outline / Shopping, Ecommerce / Bag Check" width="30.000000" height="30.000000" fill="white" fill-opacity="0"/>
		</clipPath>
	</defs>
	<g clip-path="url(#clip861_101)">
		<path id="Vector" d="M15 5.75C13.75 5.75 12.75 6.75 12.75 8L12.75 8.25C13.3 8.25 13.91 8.25 14.58 8.25L15.41 8.25C16.08 8.25 16.69 8.25 17.25 8.25L17.25 8C17.25 6.75 16.24 5.75 15 5.75ZM18.75 8.32L18.75 8C18.75 5.92 17.07 4.25 15 4.25C12.92 4.25 11.25 5.92 11.25 8L11.25 8.32C11.1 8.34 10.96 8.35 10.83 8.37C9.82 8.49 8.99 8.75 8.28 9.34C7.57 9.93 7.16 10.7 6.85 11.67C6.56 12.61 6.33 13.81 6.04 15.33L6.02 15.44C5.62 17.59 5.3 19.27 5.25 20.61C5.19 21.97 5.39 23.1 6.16 24.03C6.93 24.96 8 25.36 9.35 25.56C10.67 25.75 12.39 25.75 14.57 25.75L15.42 25.75C17.6 25.75 19.32 25.75 20.64 25.56C21.99 25.36 23.06 24.96 23.83 24.03C24.6 23.1 24.8 21.97 24.74 20.61C24.69 19.27 24.37 17.59 23.97 15.44L23.95 15.33C23.66 13.81 23.44 12.61 23.14 11.67C22.83 10.7 22.42 9.93 21.71 9.34C21 8.75 20.17 8.49 19.16 8.37C19.03 8.35 18.89 8.34 18.75 8.32ZM11.02 9.85C10.16 9.96 9.64 10.16 9.24 10.49C8.84 10.83 8.54 11.3 8.28 12.12C8.02 12.96 7.81 14.08 7.51 15.66C7.09 17.88 6.8 19.46 6.75 20.67C6.69 21.86 6.88 22.55 7.31 23.07C7.74 23.59 8.39 23.9 9.57 24.07C10.77 24.24 12.38 24.25 14.63 24.25L15.36 24.25C17.61 24.25 19.22 24.24 20.42 24.07C21.6 23.9 22.25 23.59 22.68 23.07C23.11 22.55 23.3 21.86 23.25 20.67C23.19 19.46 22.9 17.88 22.48 15.66C22.19 14.08 21.97 12.96 21.71 12.12C21.45 11.3 21.15 10.83 20.75 10.49C20.35 10.16 19.83 9.96 18.98 9.85C18.1 9.75 16.96 9.75 15.36 9.75L14.63 9.75C13.03 9.75 11.89 9.75 11.02 9.85ZM17.49 14.93C17.8 15.21 17.83 15.68 17.56 15.99L14.89 18.99C14.76 19.14 14.57 19.23 14.37 19.24C14.17 19.25 13.98 19.19 13.83 19.05L12.49 17.85C12.19 17.58 12.16 17.1 12.44 16.79C12.71 16.49 13.19 16.46 13.5 16.74L14.27 17.43L16.43 15C16.71 14.69 17.18 14.66 17.49 14.93Z" fill="#1C274C" fill-opacity="1.000000" fill-rule="evenodd"/>
	</g>
</svg>
