<svg width="30.000000" height="30.000000" viewBox="0 0 30 30" fill="none" xmlns="http://www.w3.org/2000/svg" xmlns:xlink="http://www.w3.org/1999/xlink">
	<desc>
			Created with Pixso.
	</desc>
	<defs>
		<clipPath id="clip664_92">
			<rect id="Outline / Notes / Clipboard Check" rx="5.000000" width="30.000000" height="30.000000" fill="white" fill-opacity="0"/>
		</clipPath>
	</defs>
	<g clip-path="url(#clip664_92)">
		<path id="Vector" d="M10.26 6.25C10.38 5.12 11.33 4.25 12.5 4.25L17.5 4.25C18.66 4.25 19.61 5.12 19.73 6.25C20.5 6.27 21.16 6.31 21.72 6.41C22.48 6.55 23.12 6.82 23.65 7.34C24.25 7.94 24.51 8.7 24.63 9.6C24.75 10.47 24.75 11.57 24.75 12.94L24.75 19.05C24.75 20.42 24.75 21.52 24.63 22.39C24.51 23.29 24.25 24.04 23.65 24.64C23.04 25.25 22.29 25.51 21.39 25.63C20.52 25.74 19.42 25.74 18.05 25.74L11.94 25.74C10.57 25.74 9.47 25.74 8.6 25.63C7.7 25.51 6.95 25.25 6.34 24.64C5.74 24.04 5.48 23.29 5.36 22.39C5.25 21.52 5.25 20.42 5.25 19.05L5.25 12.94C5.25 11.57 5.25 10.47 5.36 9.6C5.48 8.7 5.74 7.94 6.34 7.34C6.87 6.82 7.51 6.55 8.27 6.41C8.83 6.31 9.49 6.27 10.26 6.25ZM10.26 7.75C9.54 7.77 8.99 7.81 8.54 7.89C7.98 7.99 7.65 8.16 7.4 8.4C7.13 8.68 6.95 9.07 6.85 9.8C6.75 10.56 6.75 11.56 6.75 12.99L6.75 18.99C6.75 20.43 6.75 21.43 6.85 22.18C6.95 22.92 7.13 23.31 7.4 23.58C7.68 23.86 8.07 24.04 8.8 24.14C9.56 24.24 10.56 24.24 12 24.24L18 24.24C19.43 24.24 20.43 24.24 21.19 24.14C21.92 24.04 22.31 23.86 22.59 23.58C22.86 23.31 23.04 22.92 23.14 22.18C23.24 21.43 23.25 20.43 23.25 18.99L23.25 12.99C23.25 11.56 23.24 10.56 23.14 9.8C23.04 9.07 22.86 8.68 22.59 8.4C22.34 8.16 22.01 7.99 21.45 7.89C21 7.81 20.45 7.77 19.73 7.75C19.6 8.87 18.65 9.75 17.5 9.75L12.5 9.75C11.34 9.75 10.39 8.87 10.26 7.75ZM12.5 5.75C12.08 5.75 11.75 6.08 11.75 6.5L11.75 7.5C11.75 7.91 12.08 8.25 12.5 8.25L17.5 8.25C17.91 8.25 18.25 7.91 18.25 7.5L18.25 6.5C18.25 6.08 17.91 5.75 17.5 5.75L12.5 5.75ZM18.54 13.48C18.83 13.79 18.81 14.26 18.51 14.54L14.22 18.54C13.93 18.81 13.49 18.81 13.2 18.54L11.48 16.94C11.18 16.66 11.16 16.19 11.45 15.88C11.73 15.58 12.2 15.56 12.51 15.85L13.71 16.97L17.48 13.45C17.79 13.16 18.26 13.18 18.54 13.48Z" fill="#1C274C" fill-opacity="1.000000" fill-rule="evenodd"/>
	</g>
</svg>
