<svg width="30.000000" height="30.000000" viewBox="0 0 30 30" fill="none" xmlns="http://www.w3.org/2000/svg" xmlns:xlink="http://www.w3.org/1999/xlink">
	<desc>
			Created with Pixso.
	</desc>
	<defs>
		<clipPath id="clip861_152">
			<rect id="Outline / Shopping, Ecommerce / Shop Minimalistic" width="30.000000" height="30.000000" fill="white" fill-opacity="0"/>
		</clipPath>
	</defs>
	<g clip-path="url(#clip861_152)">
		<path id="Vector" d="M10.43 4.25L19.56 4.25C20.13 4.24 20.61 4.24 21.01 4.29C21.44 4.33 21.83 4.43 22.2 4.66C22.58 4.89 22.84 5.19 23.07 5.56C23.28 5.9 23.5 6.33 23.75 6.84L23.77 6.87C23.78 6.89 23.79 6.91 23.8 6.93L25.2 10.48C25.37 10.9 25.55 11.43 25.61 11.97C25.66 12.52 25.59 13.15 25.15 13.7C24.65 14.33 23.87 14.75 22.99 14.75C22.21 14.75 21.5 14.41 20.99 13.88C20.49 14.41 19.78 14.75 18.99 14.75C18.21 14.75 17.5 14.41 16.99 13.88C16.49 14.41 15.78 14.75 14.99 14.75C14.21 14.75 13.5 14.41 12.99 13.88C12.49 14.41 11.78 14.75 10.99 14.75C10.21 14.75 9.5 14.41 8.99 13.88C8.49 14.41 7.78 14.75 6.99 14.75C6.12 14.75 5.34 14.33 4.83 13.7C4.4 13.15 4.33 12.52 4.38 11.97C4.44 11.43 4.62 10.9 4.79 10.48L6.19 6.93C6.2 6.91 6.21 6.89 6.22 6.87L6.23 6.84C6.49 6.33 6.71 5.9 6.92 5.56C7.15 5.19 7.41 4.89 7.79 4.66C8.16 4.43 8.55 4.33 8.98 4.29C9.38 4.24 9.86 4.24 10.43 4.25ZM9.74 12C9.74 12.69 10.3 13.25 10.99 13.25C11.68 13.25 12.24 12.69 12.24 12C12.24 11.58 12.58 11.25 12.99 11.25C13.41 11.25 13.74 11.58 13.74 12C13.74 12.69 14.3 13.25 14.99 13.25C15.68 13.25 16.24 12.69 16.24 12C16.24 11.58 16.58 11.25 16.99 11.25C17.41 11.25 17.74 11.58 17.74 12C17.74 12.69 18.3 13.25 18.99 13.25C19.68 13.25 20.24 12.69 20.24 12C20.24 11.58 20.58 11.25 20.99 11.25C21.41 11.25 21.74 11.58 21.74 12C21.74 12.69 22.3 13.25 22.99 13.25C23.39 13.25 23.75 13.06 23.98 12.77C24.09 12.62 24.15 12.43 24.12 12.12C24.08 11.79 23.96 11.43 23.81 11.03L22.41 7.51C22.15 6.98 21.97 6.62 21.8 6.36C21.64 6.11 21.53 6 21.42 5.93C21.3 5.86 21.16 5.81 20.86 5.78C20.55 5.75 20.14 5.75 19.52 5.75L10.47 5.75C9.85 5.75 9.44 5.75 9.13 5.78C8.83 5.81 8.68 5.86 8.57 5.93C8.46 6 8.35 6.11 8.19 6.36C8.02 6.62 7.84 6.98 7.57 7.51L6.18 11.03C6.03 11.43 5.91 11.79 5.87 12.12C5.84 12.43 5.9 12.62 6.01 12.77C6.24 13.06 6.6 13.25 6.99 13.25C7.68 13.25 8.24 12.69 8.24 12C8.24 11.58 8.58 11.25 8.99 11.25C9.41 11.25 9.74 11.58 9.74 12ZM21.99 17.25C22.41 17.25 22.74 17.58 22.74 18L22.74 24.25L23.99 24.25C24.41 24.25 24.74 24.58 24.74 25C24.74 25.41 24.41 25.75 23.99 25.75L5.99 25.75C5.58 25.75 5.24 25.41 5.24 25C5.24 24.58 5.58 24.25 5.99 24.25L7.24 24.25L7.24 18C7.24 17.58 7.58 17.25 7.99 17.25C8.41 17.25 8.74 17.58 8.74 18L8.74 24.25L21.24 24.25L21.24 18C21.24 17.58 21.58 17.25 21.99 17.25Z" fill="#1C274C" fill-opacity="1.000000" fill-rule="evenodd"/>
	</g>
</svg>
