<svg width="30.000000" height="30.000000" viewBox="0 0 30 30" fill="none" xmlns="http://www.w3.org/2000/svg" xmlns:xlink="http://www.w3.org/1999/xlink">
	<desc>
			Created with Pixso.
	</desc>
	<defs>
		<clipPath id="clip897_892">
			<rect id="Outline / Essentional, UI / Box" width="30.000000" height="30.000000" fill="white" fill-opacity="0"/>
		</clipPath>
	</defs>
	<g clip-path="url(#clip897_892)">
		<path id="Vector" d="M15 4.25C14.39 4.25 13.83 4.4 13.22 4.65C12.64 4.89 11.95 5.25 11.1 5.7L9.03 6.78C7.99 7.33 7.15 7.77 6.51 8.2C5.84 8.65 5.32 9.12 4.95 9.75C4.57 10.39 4.4 11.08 4.32 11.9C4.25 12.69 4.25 13.67 4.25 14.9L4.25 15.09C4.25 16.32 4.25 17.3 4.32 18.09C4.4 18.91 4.57 19.6 4.95 20.24C5.32 20.87 5.84 21.34 6.51 21.79C7.15 22.22 7.99 22.66 9.03 23.21L11.1 24.29C11.95 24.74 12.64 25.1 13.22 25.34C13.83 25.59 14.39 25.75 15 25.75C15.6 25.75 16.16 25.59 16.77 25.34C17.35 25.1 18.04 24.74 18.89 24.29L20.96 23.21C22 22.66 22.84 22.22 23.48 21.79C24.15 21.34 24.67 20.87 25.04 20.24C25.42 19.6 25.59 18.91 25.67 18.09C25.75 17.3 25.75 16.32 25.75 15.09L25.75 14.9C25.75 13.67 25.75 12.69 25.67 11.9C25.59 11.08 25.42 10.39 25.04 9.75C24.67 9.12 24.15 8.65 23.48 8.2C22.84 7.77 22 7.33 20.96 6.78L18.89 5.7C18.04 5.25 17.35 4.89 16.77 4.65C16.16 4.4 15.6 4.25 15 4.25ZM11.77 7.04C12.66 6.57 13.28 6.25 13.8 6.03C14.3 5.83 14.66 5.75 15 5.75C15.33 5.75 15.69 5.83 16.19 6.03C16.71 6.25 17.33 6.57 18.22 7.04L20.22 8.09C21.31 8.66 22.08 9.07 22.65 9.45C22.93 9.64 23.16 9.81 23.33 9.99L20 11.65L11.5 7.18L11.77 7.04ZM9.94 8L9.77 8.09C8.68 8.66 7.91 9.07 7.34 9.45C7.06 9.64 6.83 9.81 6.66 9.99L15 14.16L18.35 12.48L10.15 8.16C10.07 8.12 10 8.06 9.94 8ZM5.93 11.3C5.88 11.52 5.84 11.76 5.82 12.04C5.75 12.76 5.75 13.66 5.75 14.94L5.75 15.05C5.75 16.33 5.75 17.23 5.82 17.95C5.88 18.64 6.02 19.1 6.24 19.47C6.46 19.85 6.78 20.17 7.34 20.54C7.91 20.92 8.68 21.33 9.77 21.9L11.77 22.95C12.66 23.42 13.28 23.74 13.8 23.96C13.96 24.02 14.11 24.08 14.25 24.12L14.25 15.46L5.93 11.3ZM15.75 24.12C15.88 24.08 16.03 24.02 16.19 23.96C16.71 23.74 17.33 23.42 18.22 22.95L20.22 21.9C21.31 21.33 22.08 20.92 22.65 20.54C23.21 20.17 23.53 19.85 23.75 19.47C23.98 19.1 24.11 18.64 24.17 17.95C24.24 17.23 24.25 16.33 24.25 15.05L24.25 14.94C24.25 13.66 24.24 12.76 24.17 12.04C24.15 11.76 24.11 11.52 24.06 11.3L20.75 12.96L20.75 16C20.75 16.41 20.41 16.75 20 16.75C19.58 16.75 19.25 16.41 19.25 16L19.25 13.71L15.75 15.46L15.75 24.12Z" fill="#1C274C" fill-opacity="1.000000" fill-rule="evenodd"/>
	</g>
</svg>
