<svg width="30.000000" height="30.000000" viewBox="0 0 30 30" fill="none" xmlns="http://www.w3.org/2000/svg" xmlns:xlink="http://www.w3.org/1999/xlink">
	<desc>
			Created with Pixso.
	</desc>
	<defs>
		<clipPath id="clip116_189">
			<rect id="Outline / Money / Tag Price" width="30.000000" height="30.000000" fill="white" fill-opacity="0"/>
		</clipPath>
	</defs>
	<g clip-path="url(#clip116_189)">
		<path id="Vector (Stroke)" d="M14.23 5.79C13.62 5.87 12.86 6.05 11.78 6.3L10.55 6.58C9.64 6.79 9.02 6.94 8.54 7.1C8.07 7.26 7.81 7.42 7.61 7.62C7.42 7.81 7.26 8.07 7.1 8.54C6.94 9.02 6.79 9.64 6.58 10.55L6.3 11.78C6.05 12.86 5.87 13.62 5.79 14.23C5.71 14.83 5.73 15.24 5.84 15.6C5.94 15.97 6.14 16.33 6.53 16.79C6.92 17.27 7.47 17.82 8.25 18.6L10.08 20.43C11.44 21.79 12.41 22.76 13.24 23.39C14.06 24.01 14.65 24.25 15.26 24.25C15.86 24.25 16.46 24.01 17.27 23.39C18.1 22.76 19.07 21.79 20.43 20.43C21.79 19.07 22.76 18.1 23.39 17.27C24.01 16.46 24.25 15.86 24.25 15.26C24.25 14.65 24.01 14.06 23.39 13.24C22.76 12.41 21.79 11.44 20.43 10.08L18.6 8.25C17.82 7.47 17.27 6.92 16.79 6.53C16.33 6.14 15.97 5.94 15.6 5.84C15.24 5.73 14.83 5.71 14.23 5.79ZM14.04 4.31C14.75 4.21 15.38 4.21 16.02 4.4C16.65 4.58 17.19 4.91 17.75 5.37C18.28 5.82 18.89 6.42 19.64 7.17L21.53 9.06C22.84 10.37 23.88 11.41 24.58 12.33C25.31 13.28 25.75 14.19 25.75 15.26C25.75 16.32 25.31 17.23 24.58 18.18C23.88 19.1 22.84 20.14 21.53 21.45L21.45 21.53C20.14 22.84 19.1 23.88 18.18 24.58C17.23 25.31 16.32 25.75 15.26 25.75C14.19 25.75 13.28 25.31 12.33 24.58C11.41 23.88 10.37 22.84 9.06 21.53L7.17 19.64C6.42 18.89 5.82 18.29 5.37 17.75C4.91 17.19 4.58 16.65 4.4 16.02C4.21 15.38 4.21 14.75 4.31 14.04C4.4 13.34 4.59 12.52 4.83 11.48L5.13 10.18C5.33 9.32 5.49 8.61 5.68 8.05C5.88 7.46 6.14 6.97 6.55 6.55C6.97 6.14 7.46 5.88 8.05 5.68C8.61 5.49 9.32 5.33 10.18 5.13L11.48 4.83C12.52 4.59 13.34 4.4 14.04 4.31ZM12.49 10.99C12 10.5 11.21 10.5 10.72 10.99C10.23 11.48 10.23 12.27 10.72 12.76C11.21 13.25 12 13.25 12.49 12.76C12.97 12.27 12.97 11.48 12.49 10.99ZM9.66 9.93C10.73 8.86 12.47 8.86 13.55 9.93C14.62 11 14.62 12.75 13.55 13.82C12.47 14.89 10.73 14.89 9.66 13.82C8.58 12.75 8.58 11 9.66 9.93ZM15.99 15.1C15.81 15.1 15.58 15.18 15.38 15.38C14.99 15.77 15.09 16.15 15.2 16.26C15.31 16.37 15.7 16.47 16.09 16.09C16.87 15.3 18.22 15.04 19.09 15.91C19.76 16.58 19.76 17.55 19.36 18.31C19.56 18.61 19.53 19.01 19.27 19.27C19.01 19.53 18.61 19.56 18.32 19.36C17.86 19.6 17.34 19.69 16.84 19.59C16.44 19.51 16.18 19.11 16.26 18.7C16.34 18.3 16.74 18.04 17.15 18.12C17.32 18.16 17.61 18.1 17.85 17.85C18.24 17.47 18.14 17.08 18.03 16.97C17.92 16.86 17.53 16.76 17.15 17.15C16.36 17.93 15.01 18.19 14.14 17.32C13.47 16.65 13.47 15.69 13.88 14.92C13.68 14.63 13.71 14.22 13.96 13.96C14.22 13.71 14.62 13.68 14.92 13.87C15.26 13.69 15.63 13.6 16 13.6C16.42 13.61 16.75 13.95 16.75 14.36C16.74 14.77 16.4 15.11 15.99 15.1Z" fill="#1C274C" fill-opacity="1.000000" fill-rule="evenodd"/>
	</g>
</svg>
