<svg width="30.000000" height="30.000000" viewBox="0 0 30 30" fill="none" xmlns="http://www.w3.org/2000/svg" xmlns:xlink="http://www.w3.org/1999/xlink">
	<desc>
			Created with Pixso.
	</desc>
	<defs>
		<clipPath id="clip116_203">
			<rect id="Outline / Money / Verified Check" width="30.000000" height="30.000000" fill="white" fill-opacity="0"/>
		</clipPath>
	</defs>
	<g clip-path="url(#clip116_203)">
		<path id="Vector (Stroke)" d="M13.59 5.31C14.48 4.89 15.51 4.89 16.4 5.31C16.79 5.5 17.14 5.8 17.63 6.22C17.66 6.24 17.68 6.26 17.71 6.29C17.95 6.49 18.02 6.55 18.1 6.6C18.29 6.73 18.51 6.82 18.74 6.87C18.83 6.88 18.92 6.89 19.23 6.92C19.27 6.92 19.3 6.92 19.34 6.92C19.98 6.98 20.44 7.01 20.85 7.16C21.78 7.48 22.51 8.21 22.84 9.14C22.98 9.55 23.01 10.01 23.07 10.65C23.07 10.69 23.07 10.72 23.07 10.76C23.1 11.07 23.11 11.16 23.12 11.25C23.17 11.48 23.26 11.7 23.39 11.89C23.44 11.97 23.5 12.04 23.71 12.28C23.73 12.31 23.75 12.33 23.77 12.36C24.19 12.85 24.49 13.2 24.68 13.59C25.1 14.48 25.1 15.51 24.68 16.4C24.49 16.79 24.19 17.14 23.77 17.63C23.75 17.66 23.73 17.68 23.71 17.71C23.5 17.95 23.44 18.02 23.39 18.1C23.26 18.29 23.17 18.51 23.12 18.74C23.11 18.83 23.1 18.92 23.07 19.23C23.07 19.27 23.07 19.3 23.07 19.34C23.01 19.98 22.98 20.44 22.84 20.85C22.51 21.78 21.78 22.51 20.85 22.83C20.44 22.98 19.98 23.01 19.34 23.07C19.3 23.07 19.27 23.07 19.23 23.07C18.92 23.1 18.83 23.11 18.74 23.12C18.51 23.17 18.29 23.26 18.1 23.39C18.02 23.44 17.95 23.5 17.71 23.71C17.68 23.73 17.66 23.75 17.63 23.77C17.14 24.19 16.79 24.49 16.4 24.68C15.51 25.1 14.48 25.1 13.59 24.68C13.2 24.49 12.85 24.19 12.36 23.77C12.33 23.75 12.31 23.73 12.28 23.71C12.04 23.5 11.97 23.44 11.89 23.39C11.7 23.26 11.48 23.17 11.25 23.12C11.16 23.11 11.07 23.1 10.76 23.07C10.72 23.07 10.69 23.07 10.65 23.07C10.01 23.01 9.55 22.98 9.14 22.83C8.21 22.51 7.48 21.78 7.15 20.85C7.01 20.44 6.98 19.98 6.92 19.34C6.92 19.3 6.92 19.27 6.92 19.23C6.89 18.92 6.88 18.83 6.87 18.74C6.82 18.51 6.73 18.29 6.6 18.1C6.55 18.02 6.49 17.95 6.28 17.71C6.26 17.68 6.24 17.66 6.22 17.63C5.8 17.14 5.5 16.79 5.31 16.4C4.89 15.51 4.89 14.48 5.31 13.59C5.5 13.2 5.8 12.85 6.22 12.36C6.24 12.33 6.26 12.31 6.28 12.28C6.49 12.04 6.55 11.97 6.6 11.89C6.73 11.7 6.82 11.48 6.87 11.25C6.88 11.16 6.89 11.07 6.92 10.76C6.92 10.72 6.92 10.69 6.92 10.65C6.98 10.01 7.01 9.55 7.15 9.14C7.48 8.21 8.21 7.48 9.14 7.16C9.55 7.01 10.01 6.98 10.65 6.92C10.69 6.92 10.72 6.92 10.76 6.92C11.07 6.89 11.16 6.88 11.25 6.87C11.48 6.82 11.7 6.73 11.89 6.6C11.97 6.55 12.04 6.49 12.28 6.29C12.31 6.26 12.33 6.24 12.36 6.22C12.85 5.8 13.2 5.5 13.59 5.31ZM15.75 6.67C15.27 6.44 14.72 6.44 14.24 6.67C14.05 6.76 13.86 6.92 13.26 7.43C13.25 7.44 13.24 7.45 13.23 7.45C13.03 7.62 12.89 7.75 12.73 7.85C12.37 8.09 11.97 8.26 11.55 8.34C11.36 8.38 11.17 8.39 10.91 8.41C10.9 8.41 10.89 8.42 10.87 8.42C10.09 8.48 9.84 8.51 9.65 8.57C9.14 8.75 8.75 9.14 8.57 9.65C8.51 9.84 8.48 10.09 8.42 10.87C8.42 10.89 8.41 10.9 8.41 10.91C8.39 11.17 8.38 11.36 8.34 11.55C8.26 11.97 8.09 12.37 7.85 12.73C7.75 12.89 7.62 13.03 7.46 13.23C7.45 13.24 7.44 13.25 7.43 13.26C6.92 13.86 6.76 14.05 6.67 14.24C6.44 14.72 6.44 15.27 6.67 15.75C6.76 15.94 6.92 16.13 7.43 16.73C7.44 16.74 7.45 16.75 7.46 16.76C7.62 16.96 7.75 17.1 7.85 17.26C8.09 17.62 8.26 18.02 8.34 18.44C8.38 18.63 8.39 18.82 8.41 19.08C8.41 19.09 8.42 19.1 8.42 19.12C8.48 19.9 8.51 20.15 8.57 20.34C8.75 20.85 9.14 21.24 9.65 21.42C9.84 21.48 10.09 21.51 10.87 21.57L10.91 21.58C11.17 21.6 11.36 21.61 11.55 21.65C11.97 21.73 12.37 21.9 12.73 22.14C12.89 22.24 13.03 22.37 13.23 22.54L13.26 22.56C13.86 23.07 14.05 23.23 14.24 23.32C14.72 23.55 15.27 23.55 15.75 23.32C15.94 23.23 16.13 23.07 16.73 22.56L16.76 22.54C16.96 22.37 17.1 22.24 17.26 22.14C17.62 21.9 18.02 21.73 18.44 21.65C18.63 21.61 18.82 21.6 19.08 21.58L19.12 21.57C19.9 21.51 20.15 21.48 20.34 21.42C20.85 21.24 21.24 20.85 21.42 20.34C21.48 20.15 21.51 19.9 21.57 19.12L21.58 19.08C21.6 18.82 21.61 18.63 21.65 18.44C21.73 18.02 21.9 17.62 22.14 17.26C22.24 17.1 22.37 16.96 22.53 16.76L22.56 16.73C23.07 16.13 23.23 15.94 23.32 15.75C23.55 15.27 23.55 14.72 23.32 14.24C23.23 14.05 23.07 13.86 22.56 13.26L22.53 13.23C22.37 13.03 22.24 12.89 22.14 12.73C21.9 12.37 21.73 11.97 21.65 11.55C21.61 11.36 21.6 11.17 21.58 10.91L21.57 10.87C21.51 10.09 21.48 9.84 21.42 9.65C21.24 9.14 20.85 8.75 20.34 8.57C20.15 8.51 19.9 8.48 19.12 8.42C19.1 8.42 19.09 8.41 19.08 8.41C18.82 8.39 18.63 8.38 18.44 8.34C18.02 8.26 17.62 8.09 17.26 7.85C17.1 7.75 16.96 7.62 16.76 7.45C16.75 7.45 16.74 7.44 16.73 7.43C16.13 6.92 15.94 6.76 15.75 6.67ZM19.04 11.95C19.33 12.25 19.33 12.72 19.04 13.02L14.02 18.04C13.73 18.33 13.25 18.33 12.96 18.04L10.95 16.03C10.66 15.74 10.66 15.26 10.95 14.96C11.24 14.67 11.72 14.67 12.02 14.96L13.49 16.44L17.98 11.95C18.27 11.66 18.75 11.66 19.04 11.95Z" fill="#1C274C" fill-opacity="1.000000" fill-rule="evenodd"/>
	</g>
</svg>
