<svg width="30.000000" height="30.000000" viewBox="0 0 30 30" fill="none" xmlns="http://www.w3.org/2000/svg" xmlns:xlink="http://www.w3.org/1999/xlink">
	<desc>
			Created with Pixso.
	</desc>
	<defs>
		<clipPath id="clip862_1256">
			<rect id="Outline / Users / User Id" rx="5.000000" width="30.000000" height="30.000000" fill="white" fill-opacity="0"/>
		</clipPath>
	</defs>
	<g clip-path="url(#clip862_1256)">
		<path id="Vector" d="M17.05 6.25L12.94 6.25C11.1 6.24 9.65 6.24 8.51 6.4C7.33 6.56 6.38 6.89 5.64 7.64C4.89 8.38 4.56 9.33 4.4 10.51C4.25 11.65 4.25 13.1 4.25 14.94L4.25 15.05C4.25 16.89 4.25 18.34 4.4 19.48C4.56 20.66 4.89 21.61 5.64 22.35C6.38 23.1 7.33 23.43 8.51 23.59C9.65 23.75 11.1 23.75 12.94 23.75L17.05 23.75C18.89 23.75 20.34 23.75 21.48 23.59C22.66 23.43 23.61 23.1 24.35 22.35C25.1 21.61 25.43 20.66 25.59 19.48C25.75 18.34 25.75 16.89 25.75 15.05L25.75 14.94C25.75 13.1 25.75 11.65 25.59 10.51C25.43 9.33 25.1 8.38 24.35 7.64C23.61 6.89 22.66 6.56 21.48 6.4C20.34 6.24 18.89 6.24 17.05 6.25ZM6.7 8.7C7.12 8.27 7.7 8.02 8.71 7.88C9.73 7.75 11.09 7.75 13 7.75L17 7.75C18.9 7.75 20.26 7.75 21.28 7.88C22.29 8.02 22.87 8.27 23.29 8.7C23.72 9.12 23.97 9.7 24.11 10.71C24.24 11.73 24.25 13.09 24.25 15C24.25 16.9 24.24 18.26 24.11 19.28C23.97 20.29 23.72 20.87 23.29 21.29C22.87 21.72 22.29 21.97 21.28 22.11C20.26 22.24 18.9 22.25 17 22.25L13 22.25C11.09 22.25 9.73 22.24 8.71 22.11C7.7 21.97 7.12 21.72 6.7 21.29C6.27 20.87 6.02 20.29 5.88 19.28C5.75 18.26 5.75 16.9 5.75 15C5.75 13.09 5.75 11.73 5.88 10.71C6.02 9.7 6.27 9.12 6.7 8.7ZM12 9.25C10.48 9.25 9.25 10.48 9.25 12C9.25 13.51 10.48 14.75 12 14.75C13.51 14.75 14.75 13.51 14.75 12C14.75 10.48 13.51 9.25 12 9.25ZM10.75 12C10.75 11.3 11.3 10.75 12 10.75C12.69 10.75 13.25 11.3 13.25 12C13.25 12.69 12.69 13.25 12 13.25C11.3 13.25 10.75 12.69 10.75 12ZM22 12.75C22.41 12.75 22.75 12.41 22.75 12C22.75 11.58 22.41 11.25 22 11.25L17 11.25C16.58 11.25 16.25 11.58 16.25 12C16.25 12.41 16.58 12.75 17 12.75L22 12.75ZM22 15.75C22.41 15.75 22.75 15.41 22.75 15C22.75 14.58 22.41 14.25 22 14.25L18 14.25C17.58 14.25 17.25 14.58 17.25 15C17.25 15.41 17.58 15.75 18 15.75L22 15.75ZM8.83 15.91C9.68 15.49 10.8 15.25 12 15.25C13.19 15.25 14.31 15.49 15.16 15.91C15.96 16.31 16.75 17.01 16.75 18L16.75 18.06C16.75 18.57 16.75 19.43 15.93 20.02C15.56 20.29 15.06 20.46 14.44 20.58C13.82 20.69 13.02 20.75 12 20.75C10.97 20.75 10.17 20.69 9.55 20.58C8.93 20.46 8.43 20.29 8.06 20.02C7.24 19.43 7.24 18.57 7.25 18.06L7.25 18C7.25 17.01 8.03 16.31 8.83 15.91ZM9.5 17.25C8.86 17.57 8.75 17.88 8.75 18C8.75 18.6 8.78 18.69 8.93 18.8C9.06 18.89 9.31 19.01 9.82 19.1C10.32 19.19 11.02 19.25 12 19.25C12.97 19.25 13.67 19.19 14.17 19.1C14.68 19.01 14.93 18.89 15.06 18.8C15.21 18.69 15.25 18.6 15.25 18C15.25 17.88 15.13 17.57 14.49 17.25C13.89 16.95 13.01 16.75 12 16.75C10.98 16.75 10.1 16.95 9.5 17.25ZM22 18.75C22.41 18.75 22.75 18.41 22.75 18C22.75 17.58 22.41 17.25 22 17.25L19 17.25C18.58 17.25 18.25 17.58 18.25 18C18.25 18.41 18.58 18.75 19 18.75L22 18.75Z" fill="#1C274C" fill-opacity="1.000000" fill-rule="evenodd"/>
	</g>
</svg>
