<svg width="30.000000" height="30.000000" viewBox="0 0 30 30" fill="none" xmlns="http://www.w3.org/2000/svg" xmlns:xlink="http://www.w3.org/1999/xlink">
	<desc>
			Created with Pixso.
	</desc>
	<defs>
		<clipPath id="clip862_1210">
			<rect id="Outline / Users / Users Group Rounded" rx="5.000000" width="30.000000" height="30.000000" fill="white" fill-opacity="0"/>
		</clipPath>
	</defs>
	<g clip-path="url(#clip862_1210)">
		<path id="Vector" d="M7.25 9C7.25 6.37 9.37 4.25 12 4.25C14.62 4.25 16.75 6.37 16.75 9C16.75 11.62 14.62 13.75 12 13.75C9.37 13.75 7.25 11.62 7.25 9ZM17.25 6C17.25 5.58 17.58 5.25 18 5.25C20.07 5.25 21.75 6.92 21.75 9C21.75 11.07 20.07 12.75 18 12.75C17.58 12.75 17.25 12.41 17.25 12C17.25 11.58 17.58 11.25 18 11.25C19.24 11.25 20.25 10.24 20.25 9C20.25 7.75 19.24 6.75 18 6.75C17.58 6.75 17.25 6.41 17.25 6ZM12 5.75C10.2 5.75 8.75 7.2 8.75 9C8.75 10.79 10.2 12.25 12 12.25C13.79 12.25 15.25 10.79 15.25 9C15.25 7.2 13.79 5.75 12 5.75ZM6.67 16.52C8.07 15.72 9.96 15.25 12 15.25C14.03 15.25 15.92 15.72 17.32 16.52C18.7 17.3 19.75 18.51 19.75 20C19.75 21.48 18.7 22.69 17.32 23.47C15.92 24.27 14.03 24.75 12 24.75C9.96 24.75 8.07 24.27 6.67 23.47C5.29 22.69 4.25 21.48 4.25 20C4.25 18.51 5.29 17.3 6.67 16.52ZM20.26 16.83C20.35 16.43 20.75 16.17 21.16 16.26C22.12 16.47 22.98 16.85 23.63 17.38C24.27 17.91 24.75 18.63 24.75 19.5C24.75 20.27 24.36 20.94 23.81 21.45C23.27 21.95 22.53 22.34 21.71 22.58C21.31 22.7 20.9 22.48 20.78 22.08C20.66 21.69 20.88 21.27 21.28 21.15C21.94 20.95 22.46 20.66 22.79 20.35C23.12 20.04 23.25 19.75 23.25 19.5C23.25 19.22 23.1 18.88 22.68 18.54C22.26 18.2 21.63 17.9 20.83 17.73C20.43 17.64 20.17 17.24 20.26 16.83ZM7.42 17.82C6.26 18.48 5.75 19.28 5.75 20C5.75 20.71 6.26 21.51 7.42 22.17C8.55 22.82 10.17 23.25 12 23.25C13.82 23.25 15.44 22.82 16.57 22.17C17.73 21.51 18.25 20.71 18.25 20C18.25 19.28 17.73 18.48 16.57 17.82C15.44 17.17 13.82 16.75 12 16.75C10.17 16.75 8.55 17.17 7.42 17.82Z" fill="#1C274C" fill-opacity="1.000000" fill-rule="evenodd"/>
	</g>
</svg>
