<svg width="30.000000" height="30.000000" viewBox="0 0 30 30" fill="none" xmlns="http://www.w3.org/2000/svg" xmlns:xlink="http://www.w3.org/1999/xlink">
	<desc>
			Created with Pixso.
	</desc>
	<defs>
		<clipPath id="clip116_199">
			<rect id="Outline / Money / Dollar" width="30.000000" height="30.000000" fill="white" fill-opacity="0"/>
		</clipPath>
	</defs>
	<g clip-path="url(#clip116_199)">
		<path id="Vector (Stroke)" d="M15 5.75C9.89 5.75 5.75 9.89 5.75 15C5.75 20.1 9.89 24.25 15 24.25C20.1 24.25 24.25 20.1 24.25 15C24.25 9.89 20.1 5.75 15 5.75ZM4.25 15C4.25 9.06 9.06 4.25 15 4.25C20.93 4.25 25.75 9.06 25.75 15C25.75 20.93 20.93 25.75 15 25.75C9.06 25.75 4.25 20.93 4.25 15ZM15 8.25C15.41 8.25 15.75 8.58 15.75 9L15.75 9.31C17.38 9.6 18.75 10.83 18.75 12.5C18.75 12.91 18.41 13.25 18 13.25C17.58 13.25 17.25 12.91 17.25 12.5C17.25 11.82 16.68 11.1 15.75 10.84L15.75 14.31C17.38 14.6 18.75 15.83 18.75 17.5C18.75 19.16 17.38 20.39 15.75 20.68L15.75 21C15.75 21.41 15.41 21.75 15 21.75C14.58 21.75 14.25 21.41 14.25 21L14.25 20.68C12.61 20.39 11.25 19.16 11.25 17.5C11.25 17.08 11.58 16.75 12 16.75C12.41 16.75 12.75 17.08 12.75 17.5C12.75 18.17 13.31 18.89 14.25 19.15L14.25 15.68C12.61 15.39 11.25 14.16 11.25 12.5C11.25 10.83 12.61 9.6 14.25 9.31L14.25 9C14.25 8.58 14.58 8.25 15 8.25ZM14.25 10.84C13.31 11.1 12.75 11.82 12.75 12.5C12.75 13.17 13.31 13.89 14.25 14.15L14.25 10.84ZM15.75 15.84L15.75 19.15C16.68 18.89 17.25 18.17 17.25 17.5C17.25 16.82 16.68 16.1 15.75 15.84Z" fill="#1C274C" fill-opacity="1.000000" fill-rule="evenodd"/>
	</g>
</svg>
