<svg width="45" height="46" viewBox="0 0 45 46" fill="none" xmlns="http://www.w3.org/2000/svg">
<path d="M22.05 45.0749C34.2279 45.0749 44.1 35.2028 44.1 23.0249C44.1 10.847 34.2279 0.974899 22.05 0.974899C9.87212 0.974899 0 10.847 0 23.0249C0 35.2028 9.87212 45.0749 22.05 45.0749Z" fill="#4F81FF"/>
<path d="M12.725 29.0679C11.9634 29.0679 11.2914 29.0007 10.709 28.8663C10.1266 28.7319 9.6338 28.5079 9.2306 28.1943C8.8386 27.8807 8.5362 27.4719 8.3234 26.9679C8.1218 26.4527 8.021 25.8199 8.021 25.0695V17.2407H10.2218V24.7671C10.2218 25.1927 10.261 25.5567 10.3394 25.8591C10.4178 26.1615 10.5522 26.4079 10.7426 26.5983C10.9442 26.7887 11.2018 26.9343 11.5154 27.0351C11.8402 27.1247 12.249 27.1695 12.7418 27.1695C13.2458 27.1695 13.6602 27.1247 13.985 27.0351C14.321 26.9343 14.5842 26.7831 14.7746 26.5815C14.965 26.3799 15.0938 26.1279 15.161 25.8255C15.2394 25.5231 15.2786 25.1703 15.2786 24.7671V17.2407H17.4626V25.0695C17.4626 26.4919 17.0538 27.5167 16.2362 28.1439C15.4298 28.7599 14.2594 29.0679 12.725 29.0679ZM20.1628 17.2407H23.5396L27.7732 26.0271H27.874V17.2407H30.0244V28.8999H27.034L22.4308 19.5591H22.33V28.8999H20.1628V17.2407ZM32.7792 17.2407H34.98V28.8999H32.7792V17.2407Z" fill="white"/>
</svg>
